<svg viewBox="0 0 100 100" xmlns="http://www.w3.org/2000/svg">
  <!-- Two Forks mark — simplified (no ridge ticks), for small inline uses like a 20-24px nav/header icon -->
  <g fill="none" stroke="#B9862C" stroke-width="6.5" stroke-linecap="round">
    <path d="M 12,30 C 18,7 27,2 34,9 C 40,15 45,19 48,18 C 51,17 50,23 45,24.5"/>
    <path d="M 88,30 C 82,7 73,2 66,9 C 60,15 55,19 52,18 C 49,17 50,23 55,24.5"/>
  </g>
  <g fill="#B23A26">
    <g transform="rotate(-30 50 92)">
      <rect x="47" y="56" width="6" height="36" rx="3"/>
      <path d="M 42,42 Q 42,38 46,38 L 54,38 Q 58,38 58,42 L 58,52 Q 58,58 50,58 Q 42,58 42,52 Z"/>
      <rect x="43" y="10" width="3.6" height="32" rx="1.8"/>
      <rect x="48.2" y="10" width="3.6" height="32" rx="1.8"/>
      <rect x="53.4" y="10" width="3.6" height="32" rx="1.8"/>
    </g>
    <g transform="rotate(30 50 92)">
      <rect x="47" y="56" width="6" height="36" rx="3"/>
      <path d="M 42,42 Q 42,38 46,38 L 54,38 Q 58,38 58,42 L 58,52 Q 58,58 50,58 Q 42,58 42,52 Z"/>
      <rect x="43" y="10" width="3.6" height="32" rx="1.8"/>
      <rect x="48.2" y="10" width="3.6" height="32" rx="1.8"/>
      <rect x="53.4" y="10" width="3.6" height="32" rx="1.8"/>
    </g>
  </g>
</svg>
